# Blender v3.0.1 OBJ File: 'star_with_outline.blend'
# www.blender.org
mtllib star.mtl
o star_panels_Cylinder
v 0.000000 -1.050000 -1.500000
v 0.000000 1.050000 -1.500000
v 0.336919 -1.050000 -0.463730
v 0.336919 1.050000 -0.463730
v 1.426585 -1.050000 -0.463525
v 1.426585 1.050000 -0.463525
v 0.545147 -1.050000 0.177129
v 0.545147 1.050000 0.177129
v 0.881678 -1.050000 1.213526
v 0.881678 1.050000 1.213526
v -0.000000 -1.050000 0.573201
v -0.000000 1.050000 0.573201
v -0.881678 -1.050000 1.213525
v -0.881678 1.050000 1.213525
v -0.545147 -1.050000 0.177129
v -0.545147 1.050000 0.177129
v -1.426585 -1.050000 -0.463526
v -1.426585 1.050000 -0.463526
v -0.336919 -1.050000 -0.463730
v -0.336919 1.050000 -0.463730
vt 1.000000 1.000000
vt 0.500000 0.000000
vt 1.000000 0.000000
vt 0.500000 1.000000
vt 0.000000 0.000000
vt 1.000000 1.000000
vt 0.500000 0.000000
vt 1.000000 0.000000
vt 0.500000 1.000000
vt 0.000000 0.000000
vt 1.000000 1.000000
vt 0.500000 0.000000
vt 1.000000 0.000000
vt 0.500000 1.000000
vt 0.000000 0.000000
vt 1.000000 1.000000
vt 0.500000 0.000000
vt 1.000000 0.000000
vt 0.500000 1.000000
vt 0.000000 0.000000
vt 0.500000 0.308933
vt 0.681715 0.440957
vt 0.612306 0.654576
vt 1.000000 1.000000
vt 0.500000 0.000000
vt 1.000000 0.000000
vt 0.500000 1.000000
vt 0.000000 0.000000
vt 0.500000 0.308933
vt 0.318285 0.440957
vt 0.387694 0.654576
vt 0.000000 1.000000
vt 0.000000 1.000000
vt 0.000000 1.000000
vt 0.000000 1.000000
vt 0.500000 0.999999
vt 0.387694 0.654576
vt 0.024472 0.654508
vt 0.318285 0.440957
vt 0.206108 0.095492
vt 0.793892 0.095492
vt 0.975527 0.654508
vt 0.000000 1.000000
vt 0.500000 0.999999
vt 0.612306 0.654576
vt 0.975527 0.654508
vt 0.681715 0.440957
vt 0.793892 0.095492
vt 0.206108 0.095492
vt 0.024472 0.654508
vn 0.9510 0.0000 -0.3092
vn 0.0002 0.0000 -1.0000
vn 0.5879 0.0000 0.8089
vn 0.9511 0.0000 -0.3088
vn -0.5876 0.0000 0.8091
vn 0.5876 0.0000 0.8091
vn -0.9511 0.0000 -0.3088
vn -0.5879 0.0000 0.8089
vn 0.0000 1.0000 -0.0000
vn -0.0002 0.0000 -1.0000
vn -0.9510 0.0000 -0.3092
vn 0.0000 -1.0000 -0.0000
usemtl None
s off
f 2/1/1 3/2/1 1/3/1
f 4/4/2 5/5/2 3/2/2
f 6/6/3 7/7/3 5/8/3
f 8/9/4 9/10/4 7/7/4
f 10/11/5 11/12/5 9/13/5
f 12/14/6 13/15/6 11/12/6
f 14/16/7 15/17/7 13/18/7
f 16/19/8 17/20/8 15/17/8
f 12/21/9 8/22/9 4/23/9
f 18/24/10 19/25/10 17/26/10
f 20/27/11 1/28/11 19/25/11
f 11/29/12 15/30/12 19/31/12
f 2/1/1 4/4/1 3/2/1
f 4/4/2 6/32/2 5/5/2
f 6/6/3 8/9/3 7/7/3
f 8/9/4 10/33/4 9/10/4
f 10/11/5 12/14/5 11/12/5
f 12/14/6 14/34/6 13/15/6
f 14/16/7 16/19/7 15/17/7
f 16/19/8 18/35/8 17/20/8
f 4/23/9 2/36/9 20/37/9
f 20/37/9 18/38/9 16/39/9
f 16/39/9 14/40/9 12/21/9
f 12/21/9 10/41/9 8/22/9
f 8/22/9 6/42/9 4/23/9
f 4/23/9 20/37/9 16/39/9
f 16/39/9 12/21/9 4/23/9
f 18/24/10 20/27/10 19/25/10
f 20/27/11 2/43/11 1/28/11
f 19/31/12 1/44/12 3/45/12
f 3/45/12 5/46/12 7/47/12
f 7/47/12 9/48/12 11/29/12
f 11/29/12 13/49/12 15/30/12
f 15/30/12 17/50/12 19/31/12
f 19/31/12 3/45/12 7/47/12
f 7/47/12 11/29/12 19/31/12
