# Blender v3.0.1 OBJ File: 'star_with_outline.blend'
# www.blender.org
mtllib star_outline.mtl
o star_frame_Cylinder.002
v 0.000000 -1.017401 -1.449630
v 0.000000 -1.082599 -1.550370
v 0.000000 1.017401 -1.449630
v 0.000000 1.082599 -1.550370
v 0.365245 -1.085741 -0.502716
v 0.365245 1.085741 -0.502716
v 1.378681 -1.017401 -0.447961
v 1.474488 -1.082599 -0.479090
v 1.378681 1.017401 -0.447961
v 1.474488 1.082599 -0.479090
v 0.545514 -0.990000 0.176848
v 0.590980 -1.085741 0.192020
v 0.590980 1.085741 0.192020
v 0.852072 -1.017401 1.172776
v 0.911283 -1.082599 1.254275
v 0.852072 1.017401 1.172776
v 0.911283 1.082599 1.254275
v -0.000000 -1.085741 0.621392
v -0.000000 1.085741 0.621392
v -0.852073 -1.017401 1.172776
v -0.911283 -1.082599 1.254275
v -0.852073 1.017401 1.172776
v -0.911283 1.082599 1.254275
v -0.590980 -1.085741 0.192020
v -0.590980 1.085741 0.192020
v -1.378681 -1.017401 -0.447961
v -1.474488 -1.082599 -0.479090
v -1.378681 1.017401 -0.447961
v -1.474488 1.082599 -0.479090
v -0.365245 -1.085741 -0.502716
v -0.365245 1.085741 -0.502716
v 0.018552 -0.990000 -1.442940
v 0.018552 0.990000 -1.442940
v 0.337074 0.990000 -0.463942
v 0.337074 -0.990000 -0.463942
v 1.366585 0.990000 -0.463537
v 1.366585 -0.990000 -0.463537
v 1.378050 -0.990000 -0.428249
v 1.378050 0.990000 -0.428249
v 0.545397 0.990000 0.177210
v 0.545279 -0.990000 0.177572
v 0.863147 0.990000 1.156459
v 0.863147 -0.990000 1.156459
v 0.833130 -0.990000 1.178268
v 0.833130 0.990000 1.178268
v -0.000000 0.990000 0.573464
v -0.000000 -0.990000 0.573464
v -0.833130 0.990000 1.178267
v -0.833130 -0.990000 1.178267
v -0.863148 -0.990000 1.156459
v -0.863148 0.990000 1.156459
v -0.545397 0.990000 0.177210
v -0.545397 -0.990000 0.177210
v -1.378050 0.990000 -0.428249
v -1.378050 -0.990000 -0.428249
v 0.293333 1.050000 -0.403738
v -0.000000 1.050000 -1.305948
v -0.293333 1.050000 -0.403738
v -1.242030 1.050000 -0.403560
v -0.474622 1.050000 0.154214
v -0.767617 1.050000 1.056534
v -0.000000 1.050000 0.499047
v 0.767617 1.050000 1.056534
v 0.474622 1.050000 0.154214
v 1.242030 1.050000 -0.403560
v -1.366585 -0.990000 -0.463537
v -1.366585 0.990000 -0.463537
v -0.337074 0.990000 -0.463942
v -0.337074 -0.990000 -0.463942
v -0.018552 0.990000 -1.442940
v -0.018552 -0.990000 -1.442940
v -0.000000 -1.050000 -1.305948
v 0.293333 -1.050000 -0.403738
v 1.242030 -1.050000 -0.403560
v 0.474622 -1.050000 0.154214
v 0.767617 -1.050000 1.056534
v -0.000000 -1.050000 0.499047
v -0.767617 -1.050000 1.056534
v -0.474622 -1.050000 0.154214
v -1.242030 -1.050000 -0.403560
v -0.293333 -1.050000 -0.403738
vt 0.250000 0.490000
vt 1.000000 1.000000
vt 0.900000 1.000000
vt 1.000000 0.500000
vt 1.000000 1.000000
vt 0.750000 0.490000
vt 0.900000 0.500000
vt 0.900000 1.000000
vt 0.700000 0.500000
vt 0.700000 0.500000
vt 0.700000 0.500000
vt 0.800000 1.000000
vt 0.478254 0.324164
vt 0.478254 0.324164
vt 0.900000 0.500000
vt 1.000000 0.500000
vt 0.800000 1.000000
vt 0.891068 0.444164
vt 0.978254 0.324164
vt 0.800000 0.500000
vt 0.800000 0.500000
vt 0.800000 0.500000
vt 0.800000 1.000000
vt 0.700000 1.000000
vt 0.700000 1.000000
vt 0.600000 1.000000
vt 0.391068 0.055836
vt 0.391068 0.055836
vt 0.600000 1.000000
vt 0.978254 0.175836
vt 0.978254 0.175836
vt 0.600000 0.500000
vt 0.600000 0.500000
vt 0.600000 1.000000
vt 0.500000 1.000000
vt 0.600000 0.500000
vt 0.891068 0.055836
vt 0.500000 0.500000
vt 0.500000 1.000000
vt -0.000000 1.000000
vt 0.400000 1.000000
vt 0.108932 0.055836
vt 0.108932 0.055836
vt 0.500000 0.500000
vt 0.400000 1.000000
vt 0.750000 0.010000
vt 0.608932 0.055836
vt 0.400000 0.500000
vt 0.400000 0.500000
vt 0.400000 0.500000
vt 0.400000 1.000000
vt 0.300000 0.500000
vt 0.300000 1.000000
vt 0.300000 1.000000
vt 0.200000 1.000000
vt 0.021746 0.324164
vt 0.300000 0.500000
vt 0.200000 0.500000
vt 0.200000 0.500000
vt 0.200000 1.000000
vt 0.521746 0.324164
vt 0.200000 0.500000
vt 0.250000 0.490000
vt 0.391068 0.444164
vt 0.250000 0.490000
vt 0.100000 1.000000
vt 0.108932 0.444164
vt 0.108932 0.444164
vt 0.100000 0.500000
vt 0.021746 0.324164
vt 0.021746 0.175836
vt 0.021746 0.175836
vt 0.108932 0.055836
vt 0.250000 0.010000
vt 0.250000 0.010000
vt 0.391068 0.055836
vt 0.478254 0.175836
vt 0.478254 0.175836
vt 0.478254 0.324164
vt 0.391068 0.444164
vt 0.200000 1.000000
vt 0.100000 1.000000
vt 0.608932 0.444164
vt 0.100000 0.500000
vt -0.000000 1.000000
vt -0.000000 0.500000
vt -0.000000 0.500000
vt 0.891068 0.444164
vt 0.978254 0.324164
vt 0.978254 0.175836
vt 0.891068 0.055836
vt 0.750000 0.010000
vt 0.608932 0.055836
vt 0.521746 0.175836
vt 0.521746 0.175836
vt 0.521746 0.324164
vt 0.608932 0.444164
vt 0.750000 0.490000
vt 1.000000 1.000000
vt 0.750000 0.490000
vt 0.800000 0.500000
vt 0.978254 0.324164
vt 0.600000 0.500000
vt 0.600000 1.000000
vt 0.891068 0.055836
vt -0.000000 1.000000
vt 1.000000 0.500000
vt 0.400000 0.500000
vt 0.608932 0.055836
vt 0.021746 0.324164
vt 0.200000 0.500000
vt 0.200000 1.000000
vt 0.521746 0.324164
vt 0.400000 1.000000
vt 0.800000 1.000000
vt -0.000000 0.500000
vn -0.6723 -0.7073 0.2187
vn 0.9854 0.0000 -0.1702
vn -0.6723 0.7073 0.2187
vn 0.8814 -0.3755 -0.2868
vn 0.8505 0.4477 0.2763
vn 0.1425 -0.5359 0.8321
vn 0.9275 0.1887 -0.3228
vn 0.0204 -0.1887 -0.9818
vn -0.0001 0.7084 0.7059
vn -0.1427 0.0000 -0.9898
vn 0.0004 0.3755 -0.9268
vn 0.4663 0.0000 0.8846
vn -0.4157 0.7071 -0.5720
vn 0.5451 -0.3755 0.7496
vn -0.7474 -0.5359 0.3927
vn 0.5936 0.1887 0.7823
vn 0.9401 -0.1887 -0.2840
vn -0.5969 0.7784 -0.1942
vn 0.8972 0.0000 -0.4415
vn 0.4153 -0.7073 -0.5721
vn 0.8808 0.3773 -0.2860
vn -0.6972 0.0000 0.7169
vn 0.4153 0.7073 -0.5721
vn -0.5445 -0.3755 0.7500
vn 0.0000 0.0000 1.0000
vn -0.6044 -0.5360 -0.5894
vn -0.5606 0.1887 0.8063
vn 0.5606 -0.1887 0.8063
vn -0.4148 0.7084 -0.5711
vn 0.6972 0.0000 0.7169
vn 0.5445 0.3755 0.7500
vn -0.8972 0.0000 -0.4415
vn 0.6724 0.7073 0.2182
vn -0.8816 -0.3755 -0.2861
vn 0.4158 -0.7073 -0.5718
vn -0.9401 0.1887 -0.2840
vn 0.9511 0.0000 0.3090
vn -0.5936 -0.1887 0.7823
vn 0.4158 0.7073 -0.5718
vn -0.4663 0.0000 0.8846
vn 0.8354 -0.5360 0.1216
vn -0.5451 0.3755 0.7496
vn -0.3615 0.9242 0.1233
vn 0.0001 -0.7084 0.7059
vn 0.3230 0.9406 0.1050
vn 0.0003 0.7073 0.7070
vn 0.0055 0.9242 0.3819
vn 0.1997 0.9406 -0.2747
vn 0.3649 0.9242 0.1128
vn 0.5878 0.0000 -0.8090
vn -0.1996 0.9406 -0.2748
vn 0.2200 0.9242 -0.3122
vn -0.5878 0.0000 -0.8090
vn -0.3230 0.9406 0.1049
vn -0.2289 0.9242 -0.3057
vn -0.9511 0.0000 0.3090
vn -0.0001 0.9406 0.3396
vn 0.1427 0.0000 -0.9898
vn -0.0004 -0.3755 -0.9268
vn 0.6713 0.7084 0.2182
vn -0.0204 0.1887 -0.9818
vn -0.9275 -0.1887 -0.3228
vn -0.9854 0.0000 -0.1702
vn -0.8814 0.3755 -0.2868
vn -0.3230 -0.9406 0.1050
vn -0.4158 -0.7073 -0.5718
vn -0.0055 -0.9242 0.3819
vn -0.1997 -0.9406 -0.2747
vn -0.3649 -0.9242 0.1128
vn 0.1996 -0.9406 -0.2748
vn 0.6724 -0.7073 0.2182
vn -0.2200 -0.9242 -0.3122
vn 0.3230 -0.9406 0.1049
vn 0.2289 -0.9242 -0.3057
vn 0.0001 -0.9406 0.3396
vn 0.3615 -0.9242 0.1233
vn -0.6713 -0.7084 0.2182
vn -0.8354 -0.5360 0.1216
vn -0.8354 0.5360 0.1216
vn -0.6713 0.7084 0.2182
vn 0.9275 -0.1887 -0.3228
vn -0.0001 -0.7084 0.7059
vn -0.0003 -0.7073 0.7070
vn 0.8814 0.3755 -0.2868
vn 0.0004 -0.3755 -0.9268
vn 0.1425 0.5359 0.8321
vn -0.0003 0.7073 0.7070
vn 0.0204 0.1887 -0.9818
vn -0.3738 0.5360 -0.7570
vn -0.4158 0.7070 -0.5720
vn 0.5936 -0.1887 0.7823
vn -0.6713 -0.7084 0.2180
vn -0.6724 -0.7073 0.2182
vn 0.5445 0.3773 0.7491
vn 0.8816 -0.3755 -0.2861
vn -0.6726 0.7070 0.2184
vn -0.7474 0.5359 0.3927
vn -0.6725 0.7071 0.2184
vn 0.4148 -0.7084 -0.5711
vn 0.6044 -0.5360 -0.5894
vn 0.9401 0.1887 -0.2840
vn 0.6044 0.5360 -0.5894
vn 0.4148 0.7084 -0.5711
vn -0.5606 -0.1887 0.8063
vn 0.0000 0.2372 0.9715
vn 0.0000 -0.2372 0.9715
vn -0.4148 -0.7084 -0.5711
vn -0.4153 -0.7073 -0.5721
vn -0.5445 0.3755 0.7500
vn 0.5445 -0.3755 0.7500
vn -0.6044 0.5360 -0.5894
vn -0.4153 0.7073 -0.5721
vn 0.5606 0.1887 0.8063
vn 0.7474 0.5359 0.3927
vn 0.6713 0.7084 0.2180
vn -0.9401 -0.1887 -0.2840
vn 0.3738 -0.5360 -0.7570
vn 0.4150 -0.7084 -0.5710
vn -0.8816 0.3755 -0.2861
vn 0.9239 -0.2372 0.3002
vn 0.9239 0.2372 0.3002
vn -0.5451 -0.3755 0.7496
vn 0.4150 0.7084 -0.5710
vn 0.3738 0.5360 -0.7570
vn 0.6713 -0.7084 0.2182
vn 0.6723 -0.7073 0.2187
vn -0.5936 0.1887 0.7823
vn -0.3230 0.9406 0.1050
vn -0.1425 -0.5359 0.8321
vn 0.0003 -0.7073 0.7070
vn 0.3615 0.9242 0.1233
vn -0.1425 0.5359 0.8321
vn 0.0001 0.7084 0.7059
vn 0.0001 0.9406 0.3396
vn 0.2289 0.9242 -0.3057
vn 0.3230 0.9406 0.1049
vn 0.5710 -0.2372 -0.7859
vn 0.5710 0.2372 -0.7859
vn -0.2200 0.9242 -0.3122
vn 0.1996 0.9406 -0.2748
vn -0.5710 -0.2372 -0.7859
vn -0.5710 0.2372 -0.7859
vn -0.3649 0.9242 0.1128
vn -0.1997 0.9406 -0.2747
vn -0.9239 -0.2372 0.3002
vn -0.9239 0.2372 0.3002
vn -0.0055 0.9242 0.3819
vn -0.0204 -0.1887 -0.9818
vn 0.8354 0.5360 0.1216
vn 0.6723 0.7073 0.2187
vn -0.0004 0.3755 -0.9268
vn -0.8814 -0.3755 -0.2868
vn -0.9275 0.1887 -0.3228
vn -0.3615 -0.9242 0.1233
vn -0.4150 -0.7084 -0.5710
vn -0.3738 -0.5360 -0.7570
vn -0.0001 -0.9406 0.3396
vn -0.2289 -0.9242 -0.3057
vn -0.3230 -0.9406 0.1049
vn 0.2200 -0.9242 -0.3122
vn 0.6713 -0.7084 0.2180
vn 0.7474 -0.5359 0.3927
vn -0.1996 -0.9406 -0.2748
vn 0.3649 -0.9242 0.1128
vn 0.1997 -0.9406 -0.2747
vn 0.0055 -0.9242 0.3819
vn 0.3230 -0.9406 0.1050
usemtl None
s off
f 57/1/1 33/2/1 34/3/1
f 32/4/2 4/5/2 33/2/2
f 32/4/3 72/6/3 35/7/3
f 33/2/4 6/8/4 34/3/4
f 11/9/5 41/10/5 12/11/5
f 36/12/6 9/13/6 65/14/6
f 32/4/7 5/15/7 2/16/7
f 36/12/8 6/8/8 10/17/8
f 35/7/9 73/18/9 74/19/9
f 36/12/10 8/20/10 37/21/10
f 37/21/11 5/15/11 35/7/11
f 38/22/12 10/17/12 39/23/12
f 38/22/13 74/19/13 11/9/13
f 39/23/14 13/24/14 40/25/14
f 42/26/15 16/27/15 63/28/15
f 38/22/16 12/11/16 8/20/16
f 42/26/17 13/24/17 17/29/17
f 41/10/18 11/30/18 75/31/18
f 42/26/19 15/32/19 43/33/19
f 63/28/20 45/34/20 46/35/20
f 43/33/21 12/11/21 41/10/21
f 44/36/22 17/29/22 45/34/22
f 44/36/23 76/37/23 47/38/23
f 45/34/24 19/39/24 46/35/24
f 32/4/25 33/2/25 70/40/25
f 48/41/26 22/42/26 61/43/26
f 44/36/27 18/44/27 15/32/27
f 48/41/28 19/39/28 23/45/28
f 47/38/29 77/46/29 78/47/29
f 48/41/30 21/48/30 49/49/30
f 49/49/31 18/44/31 47/38/31
f 50/50/32 23/45/32 51/51/32
f 50/50/33 78/47/33 53/52/33
f 51/51/34 25/53/34 52/54/34
f 54/55/35 59/56/35 52/54/35
f 50/50/36 24/57/36 21/48/36
f 54/55/37 55/58/37 66/59/37
f 54/55/38 25/53/38 29/60/38
f 80/61/39 55/58/39 53/52/39
f 54/55/40 27/62/40 55/58/40
f 70/40/41 3/63/41 57/1/41
f 55/58/42 24/57/42 53/52/42
f 57/1/43 6/64/43 4/65/43
f 68/66/44 58/67/44 59/56/44
f 57/1/45 31/68/45 58/67/45
f 66/59/46 80/61/46 69/69/46
f 59/56/47 31/68/47 29/70/47
f 59/56/48 25/71/48 60/72/48
f 61/43/49 25/71/49 23/73/49
f 48/41/50 49/49/50 50/50/50
f 61/43/51 19/74/51 62/75/51
f 63/28/52 19/74/52 17/76/52
f 42/26/53 43/33/53 44/36/53
f 63/28/54 13/77/54 64/78/54
f 65/14/55 13/77/55 10/79/55
f 36/12/56 37/21/56 39/23/56
f 65/14/57 6/64/57 56/80/57
f 66/59/58 29/60/58 67/81/58
f 67/81/59 31/82/59 68/66/59
f 69/69/60 81/83/60 72/6/60
f 66/59/61 30/84/61 27/62/61
f 70/40/62 31/82/62 4/85/62
f 70/40/63 2/86/63 71/87/63
f 71/87/64 30/84/64 69/69/64
f 72/6/65 5/88/65 73/18/65
f 65/14/66 39/23/66 40/25/66
f 74/19/67 5/88/67 8/89/67
f 74/19/68 12/90/68 75/31/68
f 76/37/69 12/90/69 15/91/69
f 76/37/70 18/92/70 77/46/70
f 61/43/71 51/51/71 52/54/71
f 78/47/72 18/92/72 21/93/72
f 78/47/73 24/94/73 79/95/73
f 80/61/74 24/94/74 27/96/74
f 80/61/75 30/97/75 81/83/75
f 72/6/76 30/97/76 2/98/76
f 34/3/77 56/80/77 57/1/77
f 57/1/78 3/99/78 33/2/78
f 32/4/2 2/16/2 4/5/2
f 1/100/79 72/6/79 32/4/79
f 72/6/80 73/18/80 35/7/80
f 33/2/81 4/5/81 6/8/81
f 56/80/82 34/3/82 65/14/82
f 34/3/83 36/12/83 65/14/83
f 32/4/84 35/7/84 5/15/84
f 36/12/85 34/3/85 6/8/85
f 7/101/86 37/21/86 74/19/86
f 37/21/87 35/7/87 74/19/87
f 36/12/10 10/17/10 8/20/10
f 37/21/88 8/20/88 5/15/88
f 38/22/12 8/20/12 10/17/12
f 7/102/89 74/19/89 38/22/89
f 74/19/90 75/31/90 11/9/90
f 39/23/91 10/17/91 13/24/91
f 64/78/92 40/25/92 63/28/92
f 40/25/93 42/26/93 63/28/93
f 38/22/94 11/9/94 12/11/94
f 42/26/95 40/25/95 13/24/95
f 75/31/96 76/37/96 41/10/96
f 76/37/97 14/103/97 43/33/97
f 41/10/98 76/37/98 43/33/98
f 42/26/19 17/29/19 15/32/19
f 46/35/99 62/75/99 63/28/99
f 63/28/100 16/104/100 45/34/100
f 43/33/101 15/32/101 12/11/101
f 44/36/22 15/32/22 17/29/22
f 14/105/102 76/37/102 44/36/102
f 76/37/103 77/46/103 47/38/103
f 45/34/104 17/29/104 19/39/104
f 3/106/105 70/40/105 33/2/105
f 70/40/25 71/87/25 32/4/25
f 71/87/106 1/107/106 32/4/106
f 62/75/107 46/35/107 61/43/107
f 46/35/108 48/41/108 61/43/108
f 44/36/109 47/38/109 18/44/109
f 48/41/110 46/35/110 19/39/110
f 20/108/111 49/49/111 78/47/111
f 49/49/112 47/38/112 78/47/112
f 48/41/30 23/45/30 21/48/30
f 49/49/113 21/48/113 18/44/113
f 50/50/32 21/48/32 23/45/32
f 20/109/114 78/47/114 50/50/114
f 78/47/115 79/95/115 53/52/115
f 51/51/116 23/45/116 25/53/116
f 28/110/117 59/56/117 54/55/117
f 59/56/118 60/72/118 52/54/118
f 50/50/119 53/52/119 24/57/119
f 26/111/120 66/59/120 55/58/120
f 66/59/37 67/81/37 54/55/37
f 67/81/121 28/112/121 54/55/121
f 54/55/122 52/54/122 25/53/122
f 53/52/123 79/95/123 80/61/123
f 80/61/124 26/111/124 55/58/124
f 54/55/40 29/60/40 27/62/40
f 58/67/125 68/66/125 57/1/125
f 68/66/126 70/40/126 57/1/126
f 55/58/127 27/62/127 24/57/127
f 57/1/128 56/80/128 6/64/128
f 28/112/129 67/81/129 59/56/129
f 67/81/130 68/66/130 59/56/130
f 57/1/131 4/65/131 31/68/131
f 26/113/132 80/61/132 66/59/132
f 80/61/133 81/83/133 69/69/133
f 59/56/134 58/67/134 31/68/134
f 59/56/135 29/70/135 25/71/135
f 61/43/136 60/72/136 25/71/136
f 20/108/137 50/50/137 49/49/137
f 50/50/50 51/51/50 48/41/50
f 51/51/138 22/114/138 48/41/138
f 61/43/139 23/73/139 19/74/139
f 63/28/140 62/75/140 19/74/140
f 14/103/141 44/36/141 43/33/141
f 44/36/53 45/34/53 42/26/53
f 45/34/142 16/104/142 42/26/142
f 63/28/143 17/76/143 13/77/143
f 65/14/144 64/78/144 13/77/144
f 7/101/145 38/22/145 37/21/145
f 38/22/56 39/23/56 37/21/56
f 39/23/146 9/115/146 36/12/146
f 65/14/147 10/79/147 6/64/147
f 66/59/58 27/62/58 29/60/58
f 67/81/148 29/60/148 31/82/148
f 1/116/149 71/87/149 72/6/149
f 71/87/150 69/69/150 72/6/150
f 66/59/151 69/69/151 30/84/151
f 70/40/152 68/66/152 31/82/152
f 70/40/63 4/85/63 2/86/63
f 71/87/153 2/86/153 30/84/153
f 72/6/154 2/98/154 5/88/154
f 40/25/155 64/78/155 65/14/155
f 65/14/156 9/115/156 39/23/156
f 74/19/157 73/18/157 5/88/157
f 74/19/158 8/89/158 12/90/158
f 76/37/159 75/31/159 12/90/159
f 76/37/160 15/91/160 18/92/160
f 52/54/161 60/72/161 61/43/161
f 61/43/162 22/114/162 51/51/162
f 78/47/163 77/46/163 18/92/163
f 78/47/164 21/93/164 24/94/164
f 80/61/165 79/95/165 24/94/165
f 80/61/166 27/96/166 30/97/166
f 72/6/167 81/83/167 30/97/167
